<?xml version="1.0" encoding="utf-8"?>
<!-- Generator: Adobe Illustrator 27.3.1, SVG Export Plug-In . SVG Version: 6.00 Build 0)  -->
<svg version="1.1" id="katman_1" xmlns="http://www.w3.org/2000/svg" xmlns:xlink="http://www.w3.org/1999/xlink" x="0px" y="0px"
	 viewBox="0 0 500 500" style="enable-background:new 0 0 500 500;" xml:space="preserve">
<style type="text/css">
	.st0{fill-rule:evenodd;clip-rule:evenodd;fill:#EB587A;}
	.st1{fill-rule:evenodd;clip-rule:evenodd;fill:#A74057;}
</style>
<circle class="st0" cx="250" cy="250" r="201.8"/>
<path class="st1" d="M250,41.7C135,41.7,41.7,135,41.7,250S135,458.3,250,458.3c114.8,0,208.3-93.3,208.3-208.3S364.8,41.7,250,41.7
	z M387.6,137.7c24.9,30.3,39.8,68.9,40.2,110.7c-5.9-1.1-64.6-13.1-123.8-5.6c-1.4-2.9-2.5-6.1-3.8-9.3c-3.6-8.6-7.7-17.4-11.8-25.8
	C353.9,181.1,383.8,142.7,387.6,137.7z M250,72.4c45.2,0,86.5,16.9,117.9,44.7c-3.2,4.5-30.1,40.4-93.3,64.2
	c-29.1-53.6-61.5-97.4-66.4-104.2C221.5,74,235.5,72.4,250,72.4z M174.3,89.1c4.7,6.3,36.4,50.4,66,102.8
	c-83.2,22.1-156.6,21.7-164.5,21.7C87.3,158.5,124.6,112.6,174.3,89.1z M71.9,250.2c0-1.8,0-3.6,0-5.4c7.7,0.2,94,1.4,182.8-25.3
	c5.2,9.9,9.9,20.1,14.5,30.3c-2.3,0.7-4.8,1.4-7,2c-91.7,29.6-140.5,110.5-144.6,117.3C89.3,337.7,71.9,295.9,71.9,250.2z
	 M250,428.1c-41.1,0-79.1-14-109.1-37.5c3.2-6.6,39.3-76.1,139.6-111.2c0.4-0.2,0.7-0.2,1.1-0.4c25.1,64.9,35.2,119.3,38,134.9
	C298.1,423.1,274.6,428.1,250,428.1z M349.2,397.6c-1.8-10.8-11.3-62.8-34.6-126.8c55.8-8.8,104.6,5.6,110.7,7.7
	C417.7,328,389.2,370.7,349.2,397.6z"/>
</svg>
