<?xml version="1.0" encoding="utf-8"?>
<!-- Generator: Adobe Illustrator 27.3.1, SVG Export Plug-In . SVG Version: 6.00 Build 0)  -->
<svg version="1.1" id="katman_1" xmlns="http://www.w3.org/2000/svg" xmlns:xlink="http://www.w3.org/1999/xlink" x="0px" y="0px"
	 viewBox="0 0 500 500" style="enable-background:new 0 0 500 500;" xml:space="preserve">
<style type="text/css">
	.st0{fill:#564A99;}
</style>
<g transform="translate(0.000000,500.000000) scale(0.100000,-0.100000)">
	<path class="st0" d="M762,3949c-120-20-241-109-297-218c-14-29-25-54-23-56c24-20,2020-1463,2038-1473c25-14,45,0,1050,728
		c564,408,1026,744,1028,745c2,2-9,27-23,56c-58,113-176,197-306,218C4149,3962,840,3962,762,3949z"/>
	<path class="st0" d="M422,2393l3-1038l32-68c60-127,176-214,314-236c89-15,3369-15,3458,0c138,22,254,109,314,236l32,68l3,1039
		l2,1039l-25-17c-21-14-1387-1003-1952-1413l-103-74l-1035,750c-570,413-1038,751-1041,751C422,3430,421,2963,422,2393z"/>
</g>
</svg>
