<?xml version="1.0" standalone="no"?>
<!DOCTYPE svg PUBLIC "-//W3C//DTD SVG 20010904//EN"
 "http://www.w3.org/TR/2001/REC-SVG-20010904/DTD/svg10.dtd">
<svg version="1.0" xmlns="http://www.w3.org/2000/svg"
 width="8192.000000pt" height="5011.000000pt" viewBox="0 0 8192.000000 5011.000000"
 preserveAspectRatio="xMidYMid meet">

<g transform="translate(0.000000,5011.000000) scale(0.100000,-0.100000)"
fill="#000000" stroke="none">
<path d="M38150 44558 c-470 -5 -856 -11 -858 -13 -4 -3 28 -2148 31 -2151 1
-1 274 2 607 6 333 5 1016 12 1518 16 l912 7 0 -584 c0 -1959 21 -6692 30
-6864 64 -1231 367 -2113 919 -2679 134 -137 230 -217 392 -325 494 -332 1140
-518 1987 -572 251 -16 1259 -6 1562 15 610 43 1101 104 1690 212 260 48 319
60 326 66 3 4 -234 2400 -239 2404 -1 1 -94 -17 -207 -42 -762 -162 -1358
-237 -1900 -236 -963 0 -1471 180 -1700 605 -97 179 -157 439 -180 772 -6 95
2 1532 25 4430 19 2360 35 4437 35 4618 l0 327 -2047 -2 c-1127 -1 -2433 -5
-2903 -10z"/>
<path d="M30695 44363 c-38 -2 -331 -14 -650 -28 -1502 -65 -3163 -152 -4599
-240 -220 -14 -400 -26 -401 -27 -4 -5 132 -2138 136 -2142 2 -3 177 6 389 20
1147 71 2627 150 2636 141 4 -3 82 -1497 175 -3319 199 -3923 196 -3867 215
-4066 129 -1380 550 -2330 1262 -2852 426 -313 982 -505 1666 -575 778 -80
2134 19 3234 236 337 66 848 183 864 198 7 6 -74 561 -280 1936 -63 422 -69
450 -87 449 -11 -1 -144 -33 -295 -72 -458 -118 -816 -192 -1192 -247 -627
-90 -1249 -85 -1643 15 -371 93 -613 286 -740 587 -71 170 -128 422 -154 687
-6 55 -91 2138 -191 4630 -99 2492 -183 4564 -186 4604 l-6 72 -41 -2 c-23 -1
-73 -3 -112 -5z"/>
<path d="M10520 42043 c-853 -106 -1897 -237 -2113 -265 l-249 -32 6 -30 c24
-137 655 -5041 649 -5046 -4 -3 -190 -30 -413 -59 -845 -110 -2380 -322 -3325
-461 -263 -38 -479 -69 -480 -67 -1 1 -169 1141 -374 2532 -205 1392 -373
2531 -374 2531 -3 3 -625 -91 -1537 -231 -969 -149 -1110 -172 -1116 -178 -4
-4 1915 -12139 1920 -12144 1 -1 170 24 376 57 456 71 1308 202 1789 273 196
29 356 58 358 64 2 6 -161 1126 -362 2489 -201 1364 -366 2488 -368 2499 -2
18 38 25 743 127 1275 184 3352 468 3420 468 l25 0 326 -2505 c180 -1378 329
-2508 332 -2511 2 -3 288 31 633 75 571 73 1528 192 1796 222 l106 12 -4 31
c-3 17 -329 2745 -725 6061 -395 3317 -722 6051 -725 6078 -5 35 -11 47 -23
46 -9 -1 -140 -17 -291 -36z"/>
<path d="M77596 41328 c-2 -7 -57 -481 -121 -1053 -124 -1107 -352 -3111 -591
-5189 -80 -697 -144 -1269 -142 -1270 2 -1 255 -39 563 -85 308 -45 872 -129
1253 -188 401 -61 696 -102 701 -97 4 5 81 389 170 854 211 1096 716 3707
1026 5302 135 692 245 1260 245 1262 0 2 -10 6 -22 9 -58 14 -1972 305 -2708
412 -173 25 -327 48 -343 51 -18 4 -28 1 -31 -8z"/>
<path d="M53915 40573 c-829 -48 -1432 -193 -2013 -483 -377 -189 -674 -397
-965 -680 -565 -546 -938 -1241 -1141 -2120 -173 -754 -210 -1713 -96 -2500
216 -1482 983 -2594 2212 -3205 544 -270 1192 -442 1918 -509 1056 -98 1985
19 2755 346 713 303 1313 807 1739 1460 466 716 735 1623 806 2723 13 206 13
715 0 903 -70 987 -370 1815 -893 2464 -788 978 -2001 1512 -3632 1598 -171 9
-563 11 -690 3z m760 -2238 c428 -50 752 -200 1025 -474 154 -155 237 -271
335 -466 199 -400 287 -879 272 -1480 -30 -1156 -362 -1968 -971 -2376 -252
-170 -534 -255 -881 -266 -449 -15 -832 85 -1148 299 -117 79 -320 282 -409
408 -76 107 -187 318 -243 460 -47 120 -98 308 -130 475 -111 585 -74 1407 90
1975 241 839 765 1345 1495 1445 132 18 409 18 565 0z"/>
<path d="M18755 39939 c-1521 -93 -2687 -542 -3491 -1344 -314 -313 -525 -604
-723 -995 -242 -477 -382 -993 -442 -1630 -20 -206 -17 -799 5 -1040 68 -757
211 -1347 461 -1906 564 -1260 1671 -2100 3184 -2415 488 -101 935 -143 1531
-143 514 0 804 20 1563 104 742 83 1276 163 1837 276 235 47 721 152 727 158
2 1 -409 2179 -412 2184 -1 1 -132 -27 -291 -62 -1337 -298 -2519 -449 -3244
-416 -790 37 -1359 216 -1845 583 -116 88 -309 285 -403 411 -77 104 -198 303
-208 343 -6 21 -90 11 1151 128 1558 146 3637 319 5135 426 168 12 307 23 309
25 2 2 3 164 3 361 -1 587 -32 1033 -103 1463 -187 1140 -654 2013 -1391 2602
-666 531 -1484 820 -2513 888 -173 11 -650 11 -840 -1z m620 -2163 c445 -66
794 -232 1057 -503 210 -216 374 -551 441 -899 28 -144 50 -314 43 -322 -3 -3
-185 -20 -403 -38 -1118 -93 -3326 -294 -3747 -340 l-59 -7 7 94 c46 622 258
1112 635 1471 339 323 794 505 1391 557 142 13 512 5 635 -13z"/>
<path d="M65580 39660 c-1069 -67 -1931 -392 -2624 -990 -132 -114 -361 -349
-462 -476 -583 -727 -909 -1641 -1020 -2854 -22 -240 -30 -798 -15 -1030 66
-1023 363 -1852 908 -2542 123 -155 443 -479 586 -592 627 -499 1376 -811
2316 -966 418 -68 744 -94 1191 -94 371 0 550 12 840 55 1212 182 2186 794
2822 1774 480 739 757 1659 849 2815 16 201 16 746 0 925 -100 1125 -478 1974
-1182 2660 -774 753 -1856 1182 -3279 1300 -227 19 -734 27 -930 15z m910
-2246 c681 -78 1150 -400 1426 -979 222 -466 284 -1084 188 -1855 -136 -1089
-590 -1844 -1270 -2113 -201 -81 -401 -117 -644 -117 -585 -1 -1080 202 -1398
571 -274 319 -434 719 -498 1249 -24 196 -24 665 0 900 91 899 333 1502 766
1913 258 245 580 394 943 436 120 14 344 12 487 -5z"/>
<path d="M77225 31820 c-514 -59 -989 -335 -1251 -726 -144 -217 -220 -461
-231 -745 -11 -298 47 -527 201 -788 271 -460 733 -769 1293 -866 469 -80 914
-1 1293 229 342 209 564 474 675 809 170 512 71 1002 -287 1433 -289 346 -700
568 -1188 638 -138 21 -395 28 -505 16z"/>
<path d="M32452 23073 l3 -268 393 -3 392 -2 0 -1210 0 -1210 -395 0 -395 0 0
-270 0 -270 1075 0 1075 0 0 270 0 270 -390 0 -390 0 0 1210 0 1210 390 0 390
0 0 270 0 270 -1075 0 -1075 0 2 -267z"/>
<path d="M35910 23056 l0 -286 118 0 c78 0 136 -5 170 -15 127 -38 188 -155
163 -316 -25 -157 -85 -255 -290 -474 -77 -82 -139 -153 -138 -157 4 -12 400
-379 406 -376 12 5 226 232 280 298 255 306 360 646 307 996 -42 284 -174 464
-403 550 -119 45 -188 55 -405 61 l-208 5 0 -286z"/>
<path d="M39029 22477 c-138 -48 -209 -139 -244 -314 -5 -26 -12 -33 -30 -33
-27 0 -28 5 -46 193 l-12 127 -269 0 -268 0 0 -1305 0 -1305 295 0 295 0 0
918 c0 521 5 949 10 990 19 149 87 222 205 222 75 0 115 -23 147 -82 l23 -43
3 -1002 2 -1003 235 0 235 0 0 958 c0 1028 0 1022 51 1096 34 50 86 76 150 76
75 0 113 -26 147 -98 l27 -57 3 -987 3 -988 295 0 295 0 -3 1118 c-3 1116 -3
1117 -25 1195 -33 114 -56 160 -110 218 -89 96 -207 134 -388 126 -134 -5
-202 -28 -275 -94 -63 -56 -100 -119 -121 -203 -14 -56 -20 -65 -41 -68 -22
-3 -26 3 -42 58 -37 136 -110 230 -214 278 -48 22 -74 27 -162 29 -89 3 -115
0 -171 -20z"/>
<path d="M44300 22210 c-13 -148 -21 -273 -18 -275 3 -3 162 -10 354 -15 192
-6 393 -15 448 -21 265 -28 433 -114 503 -257 21 -44 28 -74 31 -145 l5 -90
-34 6 c-165 29 -318 39 -519 34 -297 -6 -470 -42 -655 -132 -290 -142 -437
-369 -452 -700 -21 -460 213 -744 671 -811 232 -34 486 0 662 89 161 81 289
267 311 448 5 45 8 49 33 49 26 0 28 -3 33 -57 4 -32 12 -161 19 -287 l12
-229 296 7 c162 3 361 9 443 13 l147 6 0 243 0 244 -22 5 c-13 2 -90 14 -173
25 -82 11 -160 23 -172 25 l-23 5 0 563 c0 318 -5 592 -10 632 -34 237 -118
412 -267 557 -113 110 -232 178 -416 237 -210 67 -388 87 -868 96 l-315 6 -24
-271z m1090 -1270 c80 -5 165 -12 189 -16 l43 -7 -4 -97 c-3 -91 -7 -104 -45
-181 -54 -108 -106 -166 -201 -229 -116 -76 -205 -102 -377 -108 -169 -5 -242
9 -325 66 -78 53 -112 121 -112 228 -1 100 26 166 89 225 120 110 336 145 743
119z"/>
<path d="M51061 17555 c-56 -18 -138 -74 -174 -120 -107 -136 -116 -353 -19
-495 77 -112 181 -165 327 -165 106 0 170 20 242 75 152 114 198 345 105 526
-30 60 -103 128 -170 160 -49 24 -71 28 -162 31 -71 2 -119 -2 -149 -12z"/>
<path d="M68581 17555 c-56 -18 -138 -74 -174 -120 -107 -136 -116 -353 -19
-495 77 -112 181 -165 327 -165 106 0 170 20 242 75 152 114 198 345 105 526
-30 60 -103 128 -170 160 -49 24 -71 28 -162 31 -71 2 -119 -2 -149 -12z"/>
<path d="M11850 17210 l0 -270 375 0 374 0 4 -1207 c4 -1322 1 -1256 63 -1463
42 -140 97 -234 188 -326 90 -90 173 -137 306 -173 242 -65 640 -50 1022 40
84 20 88 22 88 48 0 15 -13 144 -30 286 -16 142 -30 264 -30 271 0 10 -16 8
-66 -6 -276 -79 -579 -95 -730 -39 -66 25 -137 86 -166 142 -53 105 -52 59
-55 1570 l-4 1397 -669 0 -670 0 0 -270z"/>
<path d="M47050 15630 l0 -1850 300 0 300 0 0 688 c1 890 8 983 86 1149 74
156 197 243 372 265 253 32 423 -77 477 -304 12 -53 15 -200 15 -930 l0 -868
300 0 300 0 0 919 c0 600 -4 946 -11 997 -52 376 -253 627 -575 716 -67 18
-106 22 -259 22 -200 1 -258 -9 -373 -65 -135 -66 -235 -219 -260 -397 -7 -44
-9 -47 -40 -50 l-32 -3 0 780 0 781 -300 0 -300 0 0 -1850z"/>
<path d="M30442 17318 c-260 -32 -478 -138 -603 -292 -165 -204 -239 -586
-174 -894 33 -157 114 -351 205 -492 23 -35 38 -66 32 -68 -35 -11 -181 -87
-220 -114 -244 -166 -381 -402 -414 -713 -21 -207 20 -420 112 -578 54 -90
192 -228 286 -283 261 -154 614 -194 993 -112 179 38 321 97 469 195 82 54 83
54 100 34 9 -11 55 -65 102 -121 l85 -100 368 0 368 0 -281 335 c-154 184
-283 341 -286 348 -3 8 13 52 36 98 74 154 142 390 174 606 18 117 36 341 36
435 l0 68 -295 0 -295 0 0 -99 c0 -208 -60 -600 -90 -589 -14 5 -648 766 -702
843 -64 90 -143 252 -165 335 -24 90 -24 294 0 371 34 112 119 201 220 231 62
18 234 15 279 -5 97 -42 156 -124 165 -228 l6 -59 313 0 314 0 0 54 c0 144
-58 340 -135 456 -154 232 -432 352 -805 349 -69 -1 -158 -6 -198 -11z m117
-2533 l281 -329 -27 -23 c-50 -40 -181 -103 -256 -122 -351 -90 -637 40 -688
314 -38 205 79 398 306 506 l60 29 22 -23 c12 -12 148 -170 302 -352z"/>
<path d="M36450 17320 c-606 -74 -1021 -415 -1209 -995 -79 -241 -111 -471
-111 -795 1 -960 331 -1532 996 -1724 188 -55 318 -70 589 -70 181 0 285 5
375 18 115 15 415 78 520 109 l45 13 3 847 2 847 -595 0 -595 0 0 -275 0 -275
315 0 315 0 -2 -352 -3 -352 -40 -10 c-22 -5 -146 -10 -275 -10 -212 -1 -244
1 -323 21 -387 99 -618 389 -694 875 -25 162 -25 572 1 713 86 471 318 755
693 847 69 17 120 22 233 22 172 1 249 -17 394 -91 74 -38 108 -64 181 -137
l90 -91 188 208 c103 114 187 213 187 220 0 7 -24 41 -52 75 -146 172 -392
298 -683 348 -107 19 -436 27 -545 14z"/>
<path d="M280 15530 l0 -1750 488 0 c519 0 646 7 838 45 578 116 938 468 1072
1050 48 208 57 304 56 620 0 332 -15 470 -74 700 -168 650 -590 1005 -1279
1075 -57 5 -327 10 -602 10 l-499 0 0 -1750z m1162 1157 c388 -103 608 -396
674 -901 21 -158 15 -529 -10 -656 -68 -340 -217 -561 -460 -681 -170 -83
-317 -109 -621 -109 l-175 0 0 1191 0 1191 248 -4 c225 -5 256 -8 344 -31z"/>
<path d="M58670 15530 l0 -1750 488 0 c519 0 646 7 838 45 578 116 938 468
1072 1050 48 208 57 304 56 620 0 332 -15 470 -74 700 -168 650 -590 1005
-1279 1075 -57 5 -327 10 -602 10 l-499 0 0 -1750z m1162 1157 c388 -103 608
-396 674 -901 21 -158 15 -529 -10 -656 -68 -340 -217 -561 -460 -681 -170
-83 -317 -109 -621 -109 l-175 0 0 1191 0 1191 248 -4 c225 -5 256 -8 344 -31z"/>
<path d="M4190 16435 c-8 -2 -49 -9 -90 -15 -433 -70 -741 -373 -858 -845 -41
-164 -47 -224 -47 -480 0 -219 3 -264 22 -360 55 -271 147 -456 311 -627 176
-183 398 -294 698 -350 105 -19 152 -22 394 -21 187 0 323 5 425 16 167 19
302 41 312 51 6 6 -40 459 -53 529 -5 24 -9 27 -32 22 -86 -18 -321 -47 -469
-56 -289 -19 -473 8 -653 97 -133 66 -229 162 -293 294 -26 52 -49 107 -53
123 l-6 27 840 0 840 0 7 107 c11 152 0 461 -20 573 -67 375 -240 640 -518
790 -166 90 -301 120 -552 125 -104 2 -197 2 -205 0z m322 -556 c89 -19 177
-67 244 -133 95 -96 143 -215 159 -399 l7 -77 -573 2 -574 3 3 40 c7 74 42
190 83 273 69 142 195 247 340 286 65 18 238 20 311 5z"/>
<path d="M10030 16435 c-8 -2 -49 -9 -90 -15 -433 -70 -741 -373 -858 -845
-41 -164 -47 -224 -47 -480 0 -219 3 -264 22 -360 55 -271 147 -456 311 -627
176 -183 398 -294 698 -350 105 -19 152 -22 394 -21 187 0 323 5 425 16 167
19 302 41 312 51 6 6 -40 459 -53 529 -5 24 -9 27 -32 22 -86 -18 -321 -47
-469 -56 -289 -19 -473 8 -653 97 -133 66 -229 162 -293 294 -26 52 -49 107
-53 123 l-6 27 840 0 840 0 7 107 c11 152 0 461 -20 573 -67 375 -240 640
-518 790 -166 90 -301 120 -552 125 -104 2 -197 2 -205 0z m322 -556 c89 -19
177 -67 244 -133 95 -96 143 -215 159 -399 l7 -77 -573 2 -574 3 3 40 c7 74
42 190 83 273 69 142 195 247 340 286 65 18 238 20 311 5z"/>
<path d="M15784 16424 c-521 -87 -840 -472 -905 -1092 -15 -150 -7 -486 16
-612 52 -289 147 -495 304 -662 199 -212 424 -308 756 -325 278 -14 552 57
738 191 77 55 190 172 244 251 168 249 243 573 230 990 -13 435 -129 760 -351
981 -151 150 -336 241 -566 279 -116 18 -353 18 -466 -1z m382 -569 c196 -55
328 -266 363 -579 30 -265 0 -513 -83 -691 -57 -121 -123 -193 -224 -242 -76
-38 -76 -38 -202 -38 -126 0 -126 0 -202 38 -169 83 -273 266 -308 540 -24
191 -6 462 41 607 97 304 333 444 615 365z"/>
<path d="M18971 16425 c-103 -23 -156 -44 -218 -84 -119 -77 -201 -199 -239
-353 -13 -52 -21 -68 -35 -68 -23 0 -24 10 -45 263 l-17 207 -279 0 -278 0 0
-1870 0 -1870 300 0 300 0 0 800 0 800 28 0 c27 0 29 -3 41 -65 27 -136 106
-260 213 -335 124 -87 290 -127 488 -117 561 29 889 415 950 1117 25 286 -1
613 -67 840 -64 222 -142 360 -282 501 -85 84 -109 102 -201 147 -154 76 -231
93 -430 98 -120 3 -183 0 -229 -11z m162 -550 c280 -59 437 -347 437 -800 0
-430 -143 -701 -405 -771 -68 -18 -246 -18 -318 1 -182 47 -294 175 -347 396
-43 181 -46 547 -6 735 42 196 134 333 271 400 104 50 244 66 368 39z"/>
<path d="M21710 16435 c-8 -2 -49 -9 -90 -15 -433 -70 -741 -373 -858 -845
-41 -164 -47 -224 -47 -480 0 -219 3 -264 22 -360 55 -271 147 -456 311 -627
176 -183 398 -294 698 -350 105 -19 152 -22 394 -21 187 0 323 5 425 16 167
19 302 41 312 51 6 6 -40 459 -53 529 -5 24 -9 27 -32 22 -86 -18 -321 -47
-469 -56 -289 -19 -473 8 -653 97 -133 66 -229 162 -293 294 -26 52 -49 107
-53 123 l-6 27 840 0 840 0 7 107 c11 152 0 461 -20 573 -67 375 -240 640
-518 790 -166 90 -301 120 -552 125 -104 2 -197 2 -205 0z m322 -556 c89 -19
177 -67 244 -133 95 -96 143 -215 159 -399 l7 -77 -573 2 -574 3 3 40 c7 74
42 190 83 273 69 142 195 247 340 286 65 18 238 20 311 5z"/>
<path d="M25215 16429 c-289 -54 -453 -242 -497 -569 l-12 -90 -37 0 c-35 0
-39 3 -44 33 -6 37 -75 567 -75 579 0 4 -216 8 -480 8 l-480 0 0 -255 0 -255
230 0 230 0 0 -790 0 -790 -280 0 -280 0 0 -260 0 -260 885 0 885 0 0 260 0
260 -306 0 -306 0 5 458 c4 369 8 473 21 542 55 284 160 466 311 541 164 80
378 56 471 -53 54 -65 93 -199 94 -325 l0 -53 300 0 301 0 -6 78 c-14 185 -17
221 -31 297 -81 442 -325 658 -736 654 -62 -1 -135 -5 -163 -10z"/>
<path d="M39805 16429 c-289 -54 -453 -242 -497 -569 l-12 -90 -37 0 c-35 0
-39 3 -44 33 -6 37 -75 567 -75 579 0 4 -216 8 -480 8 l-480 0 0 -255 0 -255
230 0 230 0 0 -790 0 -790 -280 0 -280 0 0 -260 0 -260 885 0 885 0 0 260 0
260 -306 0 -306 0 5 458 c4 369 8 473 21 542 55 284 160 466 311 541 164 80
378 56 471 -53 54 -65 93 -199 94 -325 l0 -53 300 0 301 0 -6 78 c-14 185 -17
221 -31 297 -81 442 -325 658 -736 654 -62 -1 -135 -5 -163 -10z"/>
<path d="M45241 16425 c-103 -23 -156 -44 -218 -84 -119 -77 -201 -199 -239
-353 -13 -52 -21 -68 -35 -68 -23 0 -24 10 -45 263 l-17 207 -279 0 -278 0 0
-1870 0 -1870 300 0 300 0 0 800 0 800 28 0 c27 0 29 -3 41 -65 27 -136 106
-260 213 -335 124 -87 290 -127 488 -117 561 29 889 415 950 1117 25 286 -1
613 -67 840 -64 222 -142 360 -282 501 -85 84 -109 102 -201 147 -154 76 -231
93 -430 98 -120 3 -183 0 -229 -11z m162 -550 c280 -59 437 -347 437 -800 0
-430 -143 -701 -405 -771 -68 -18 -246 -18 -318 1 -182 47 -294 175 -347 396
-43 181 -46 547 -6 735 42 196 134 333 271 400 104 50 244 66 368 39z"/>
<path d="M53872 16424 c-494 -72 -831 -344 -976 -788 -54 -164 -76 -326 -76
-551 1 -445 118 -759 372 -1001 273 -259 640 -367 1198 -351 248 8 374 18 553
49 l128 21 -5 26 c-3 14 -17 139 -32 276 -15 138 -28 251 -29 253 -1 1 -62 -6
-136 -17 -332 -49 -690 -54 -856 -12 -299 75 -488 268 -547 560 -22 104 -28
237 -16 346 22 209 79 345 195 460 125 125 260 176 470 177 145 1 227 -16 341
-73 102 -50 198 -129 260 -213 27 -36 54 -66 59 -65 6 0 105 76 220 168 175
141 210 172 207 192 -4 34 -85 160 -145 225 -150 164 -385 278 -660 318 -128
19 -394 19 -525 0z"/>
<path d="M62580 16435 c-8 -2 -49 -9 -90 -15 -433 -70 -741 -373 -858 -845
-41 -164 -47 -224 -47 -480 0 -219 3 -264 22 -360 55 -271 147 -456 311 -627
176 -183 398 -294 698 -350 105 -19 152 -22 394 -21 187 0 323 5 425 16 167
19 302 41 312 51 6 6 -40 459 -53 529 -5 24 -9 27 -32 22 -86 -18 -321 -47
-469 -56 -289 -19 -473 8 -653 97 -133 66 -229 162 -293 294 -26 52 -49 107
-53 123 l-6 27 840 0 840 0 7 107 c11 152 0 461 -20 573 -67 375 -240 640
-518 790 -166 90 -301 120 -552 125 -104 2 -197 2 -205 0z m322 -556 c89 -19
177 -67 244 -133 95 -96 143 -215 159 -399 l7 -77 -573 2 -574 3 3 40 c7 74
42 190 83 273 69 142 195 247 340 286 65 18 238 20 311 5z"/>
<path d="M65625 16429 c-395 -39 -664 -131 -834 -285 -204 -183 -269 -580
-139 -838 59 -116 183 -218 352 -289 47 -20 283 -93 525 -163 493 -142 530
-158 563 -231 28 -64 21 -131 -19 -181 -80 -100 -258 -142 -609 -142 -203 0
-384 16 -834 73 -12 2 -21 -46 -47 -253 -17 -140 -32 -269 -32 -286 l-1 -31
93 -16 c215 -38 394 -50 747 -51 381 -1 504 10 715 64 350 88 531 238 617 510
20 66 23 95 23 235 -1 148 -3 166 -28 238 -35 102 -79 168 -156 239 -139 129
-255 177 -789 327 -216 61 -415 120 -443 132 -27 12 -63 37 -79 56 -26 29 -30
42 -30 89 0 65 18 104 64 139 80 61 214 90 480 105 185 11 560 1 761 -20 49
-5 91 -7 93 -5 7 7 64 525 59 539 -3 8 -56 18 -164 31 -181 20 -739 29 -888
14z"/>
<path d="M71048 16425 c-346 -65 -590 -295 -713 -671 -133 -404 -126 -1017 15
-1392 131 -347 348 -539 695 -614 34 -7 124 -13 210 -12 124 0 163 4 228 22
226 64 362 202 413 416 16 69 20 76 42 76 l24 0 -4 -257 c-5 -288 -14 -351
-74 -482 -61 -133 -133 -207 -264 -272 -118 -58 -196 -67 -704 -84 -252 -8
-461 -16 -463 -19 -4 -4 17 -528 21 -533 7 -8 886 30 986 43 671 86 1000 406
1085 1057 13 101 15 305 15 1403 l0 1284 -275 0 c-255 0 -275 -1 -275 -17 0
-10 -9 -115 -20 -233 -11 -118 -20 -216 -20 -217 0 -2 -9 -3 -20 -3 -13 0 -22
9 -26 28 -33 150 -76 237 -163 323 -70 70 -148 114 -256 144 -84 24 -353 29
-457 10z m495 -550 c75 -16 151 -51 208 -96 82 -65 159 -216 190 -374 19 -97
19 -553 0 -650 -50 -256 -164 -400 -356 -450 -68 -17 -247 -20 -314 -4 -120
27 -246 127 -308 244 -76 144 -109 344 -100 600 11 290 71 474 197 604 116
119 295 166 483 126z"/>
<path d="M74430 16426 c-135 -29 -246 -88 -307 -164 -56 -70 -108 -192 -121
-290 -7 -46 -8 -47 -42 -47 l-35 0 -25 230 -25 230 -272 3 -273 2 0 -1305 0
-1305 300 0 300 0 0 673 c0 716 7 895 41 1022 61 233 202 366 418 395 203 27
356 -43 435 -199 56 -110 56 -103 56 -1033 l0 -858 300 0 300 0 0 919 c0 600
-4 946 -11 997 -52 377 -255 629 -575 715 -101 28 -364 36 -464 15z"/>
<path d="M77180 16435 c-8 -2 -49 -9 -90 -15 -433 -70 -741 -373 -858 -845
-41 -164 -47 -224 -47 -480 0 -219 3 -264 22 -360 55 -271 147 -456 311 -627
176 -183 398 -294 698 -350 105 -19 152 -22 394 -21 187 0 323 5 425 16 167
19 302 41 312 51 6 6 -40 459 -53 529 -5 24 -9 27 -32 22 -86 -18 -321 -47
-469 -56 -289 -19 -473 8 -653 97 -133 66 -229 162 -293 294 -26 52 -49 107
-53 123 l-6 27 840 0 840 0 7 107 c11 152 0 461 -20 573 -67 375 -240 640
-518 790 -166 90 -301 120 -552 125 -104 2 -197 2 -205 0z m322 -556 c89 -19
177 -67 244 -133 95 -96 143 -215 159 -399 l7 -77 -573 2 -574 3 3 40 c7 74
42 190 83 273 69 142 195 247 340 286 65 18 238 20 311 5z"/>
<path d="M80685 16429 c-289 -54 -453 -242 -497 -569 l-12 -90 -37 0 c-35 0
-39 3 -44 33 -6 37 -75 567 -75 579 0 4 -216 8 -480 8 l-480 0 0 -255 0 -255
230 0 230 0 0 -790 0 -790 -280 0 -280 0 0 -260 0 -260 885 0 885 0 0 260 0
260 -306 0 -306 0 5 458 c4 369 8 473 21 542 55 284 160 466 311 541 164 80
378 56 471 -53 54 -65 93 -199 94 -325 l0 -53 300 0 301 0 -6 78 c-14 185 -17
221 -31 297 -81 442 -325 658 -736 654 -62 -1 -135 -5 -163 -10z"/>
<path d="M41380 16150 c-13 -148 -21 -273 -18 -275 3 -3 162 -10 354 -15 192
-6 393 -15 448 -21 265 -28 433 -114 503 -257 21 -44 28 -74 31 -145 l5 -90
-34 6 c-165 29 -318 39 -519 34 -297 -6 -470 -42 -655 -132 -290 -142 -437
-369 -452 -700 -21 -460 213 -744 671 -811 232 -34 486 0 662 89 161 81 289
267 311 448 5 45 8 49 33 49 26 0 28 -3 33 -57 4 -32 12 -161 19 -287 l12
-229 296 7 c162 3 361 9 443 13 l147 6 0 243 0 244 -22 5 c-13 2 -90 14 -173
25 -82 11 -160 23 -172 25 l-23 5 0 563 c0 318 -5 592 -10 632 -34 237 -118
412 -267 557 -113 110 -232 178 -416 237 -210 67 -388 87 -868 96 l-315 6 -24
-271z m1090 -1270 c80 -5 165 -12 189 -16 l43 -7 -4 -97 c-3 -91 -7 -104 -45
-181 -54 -108 -106 -166 -201 -229 -116 -76 -205 -102 -377 -108 -169 -5 -242
9 -325 66 -78 53 -112 121 -112 228 -1 100 26 166 89 225 120 110 336 145 743
119z"/>
<path d="M6026 16233 c30 -87 232 -673 448 -1303 l393 -1145 391 -3 390 -2 16
42 c35 95 876 2552 876 2560 0 4 -138 8 -308 8 l-307 0 -321 -1037 c-310
-1002 -322 -1038 -345 -1038 -23 0 -35 36 -344 1035 l-321 1035 -311 3 -312 2
55 -157z"/>
<path d="M50100 16120 l0 -270 410 0 410 0 0 -765 0 -765 -485 0 -485 0 0
-270 0 -270 1170 0 1170 0 0 270 0 270 -385 0 -385 0 0 1035 0 1035 -710 0
-710 0 0 -270z"/>
<path d="M67620 16120 l0 -270 410 0 410 0 0 -765 0 -765 -485 0 -485 0 0
-270 0 -270 1170 0 1170 0 0 270 0 270 -385 0 -385 0 0 1035 0 1035 -710 0
-710 0 0 -270z"/>
<path d="M50595 7801 c-114 -30 -185 -126 -185 -251 0 -105 48 -187 135 -233
31 -16 58 -21 120 -21 71 -1 86 2 135 30 167 94 169 353 4 446 -55 31 -152 44
-209 29z"/>
<path d="M29825 7764 c-142 -20 -190 -30 -259 -55 -251 -91 -394 -286 -442
-599 -8 -53 -14 -168 -14 -262 l0 -168 -260 0 -260 0 0 -165 0 -165 260 0 260
0 0 -505 0 -505 195 0 195 0 0 505 0 505 340 0 340 0 0 165 0 165 -340 0 -340
0 0 163 c0 179 14 270 55 353 34 70 116 145 190 175 54 21 75 24 220 24 88 0
192 -3 231 -7 l71 -8 17 163 c9 89 16 169 16 178 0 13 -17 19 -76 28 -81 12
-349 22 -399 15z"/>
<path d="M32470 7565 l0 -175 245 0 245 0 0 -720 c0 -440 4 -759 11 -818 46
-428 252 -576 743 -533 134 12 325 46 340 61 8 8 -28 368 -37 376 -1 1 -45
-10 -97 -24 -78 -20 -120 -25 -235 -26 -159 -1 -197 8 -256 61 -77 69 -73 23
-77 1056 l-3 917 -439 0 -440 0 0 -175z"/>
<path d="M34390 7565 l0 -175 245 0 245 0 0 -720 c0 -440 4 -759 11 -818 46
-428 252 -576 743 -533 134 12 325 46 340 61 8 8 -28 368 -37 376 -1 1 -45
-10 -97 -24 -78 -20 -120 -25 -235 -26 -159 -1 -197 8 -256 61 -77 69 -73 23
-77 1056 l-3 917 -439 0 -440 0 0 -175z"/>
<path d="M37448 7238 l-3 -503 -22 -3 c-18 -3 -22 3 -28 36 -18 108 -105 221
-201 263 -67 28 -177 42 -269 35 -175 -15 -281 -62 -392 -172 -160 -161 -234
-426 -220 -784 16 -373 129 -610 346 -724 100 -52 176 -70 311 -70 250 -1 390
97 434 307 4 17 13 27 25 27 16 0 21 -20 42 -160 l23 -160 52 0 c28 0 106 3
172 7 l122 6 0 1199 0 1198 -195 0 -195 0 -2 -502z m-251 -543 c100 -30 173
-106 213 -224 31 -93 44 -262 31 -399 -20 -203 -74 -310 -185 -366 -49 -26
-72 -31 -149 -34 -77 -3 -102 0 -151 19 -112 42 -187 138 -222 286 -25 102
-22 325 4 425 44 164 118 257 234 293 58 18 163 18 225 0z"/>
<path d="M48968 7238 l-3 -503 -22 -3 c-18 -3 -22 3 -28 36 -18 108 -105 221
-201 263 -67 28 -177 42 -269 35 -175 -15 -281 -62 -392 -172 -160 -161 -234
-426 -220 -784 16 -373 129 -610 346 -724 100 -52 176 -70 311 -70 250 -1 390
97 434 307 4 17 13 27 25 27 16 0 21 -20 42 -160 l23 -160 52 0 c28 0 106 3
172 7 l122 6 0 1199 0 1198 -195 0 -195 0 -2 -502z m-251 -543 c100 -30 173
-106 213 -224 31 -93 44 -262 31 -399 -20 -203 -74 -310 -185 -366 -49 -26
-72 -31 -149 -34 -77 -3 -102 0 -151 19 -112 42 -187 138 -222 286 -25 102
-22 325 4 425 44 164 118 257 234 293 58 18 163 18 225 0z"/>
<path d="M27440 7631 c-495 -71 -729 -546 -707 -1431 6 -240 15 -333 48 -499
84 -421 283 -664 614 -750 127 -33 313 -47 452 -33 65 7 135 17 156 22 l37 11
0 169 0 168 -57 -16 c-44 -12 -102 -16 -233 -17 -165 0 -180 2 -255 28 -290
99 -415 368 -432 922 -17 584 99 954 334 1062 52 24 70 27 168 28 101 0 115
-2 167 -28 147 -72 222 -229 230 -482 2 -79 0 -100 -11 -100 -8 0 -22 29 -35
75 -29 99 -65 167 -116 217 -56 57 -111 76 -197 71 -81 -5 -127 -25 -181 -80
-113 -114 -162 -315 -162 -663 0 -337 52 -543 167 -666 53 -57 115 -84 193
-84 148 0 262 116 301 304 10 47 17 61 31 61 17 0 18 -13 18 -165 l0 -165 165
0 165 0 0 638 c0 790 -7 859 -106 1062 -83 168 -214 273 -398 320 -89 22 -271
33 -356 21z m373 -925 c101 -43 148 -173 150 -416 2 -219 -47 -339 -155 -385
-158 -65 -249 79 -250 395 -1 233 41 358 135 400 50 23 77 25 120 6z"/>
<path d="M44360 7295 l0 -255 -205 0 -205 0 0 -175 0 -175 204 0 204 0 5 -417
c4 -384 6 -425 25 -500 75 -289 250 -418 614 -454 134 -13 312 -7 473 16 53 7
98 15 99 17 4 4 -33 350 -37 354 -2 2 -57 -3 -122 -11 -66 -8 -167 -15 -225
-15 -236 1 -352 59 -411 207 -23 56 -23 69 -27 431 l-4 372 381 0 381 0 0 175
0 175 -380 0 -380 0 0 255 0 255 -195 0 -195 0 0 -255z"/>
<path d="M38960 7064 c-188 -23 -320 -83 -435 -199 -136 -135 -204 -303 -225
-559 -30 -356 74 -654 283 -812 180 -136 412 -193 732 -180 138 6 395 33 404
42 6 6 -31 348 -39 357 -3 4 -51 0 -106 -10 -69 -12 -157 -17 -294 -17 -187
-1 -198 1 -277 27 -89 30 -181 91 -226 150 -30 40 -77 128 -77 146 0 8 155 11
549 11 l549 0 8 108 c14 205 -24 450 -90 580 -89 175 -241 292 -436 337 -74
16 -253 27 -320 19z m284 -393 c112 -55 186 -179 186 -312 l0 -49 -375 0 -375
0 0 24 c0 35 39 156 63 195 79 130 181 183 343 178 80 -2 99 -7 158 -36z"/>
<path d="M42879 7060 c-418 -35 -636 -175 -680 -434 -25 -149 10 -287 96 -372
76 -77 161 -112 514 -214 172 -49 326 -99 342 -110 16 -12 33 -36 38 -56 23
-82 -34 -144 -159 -175 -88 -22 -467 -17 -660 9 -85 11 -156 19 -156 19 -3 -3
-44 -332 -44 -349 0 -22 14 -26 158 -44 162 -21 610 -24 727 -5 303 49 470
151 531 325 25 69 35 180 24 259 -22 152 -96 245 -253 322 -66 32 -173 66
-379 123 -158 44 -302 88 -320 99 -19 11 -38 33 -46 55 -13 33 -12 41 4 74 22
43 66 70 153 91 77 20 441 28 615 14 77 -6 141 -9 143 -7 5 4 45 347 41 351
-2 2 -50 8 -108 14 -145 16 -454 21 -581 11z"/>
<path d="M52355 7060 c-252 -40 -419 -162 -526 -385 -51 -105 -76 -209 -89
-361 -19 -239 14 -456 94 -619 95 -192 228 -301 433 -357 106 -28 334 -31 438
-4 208 54 351 170 445 361 126 258 131 705 10 973 -87 191 -252 330 -450 377
-81 19 -275 27 -355 15z m284 -395 c144 -79 220 -309 191 -578 -30 -267 -144
-405 -337 -407 -166 -1 -285 114 -328 317 -19 89 -19 298 0 388 30 142 110
255 211 295 75 31 191 24 263 -15z"/>
<path d="M54399 7060 c-418 -35 -636 -175 -680 -434 -25 -149 10 -287 96 -372
76 -77 161 -112 514 -214 172 -49 326 -99 342 -110 16 -12 33 -36 38 -56 23
-82 -34 -144 -159 -175 -88 -22 -467 -17 -660 9 -85 11 -156 19 -156 19 -3 -3
-44 -332 -44 -349 0 -22 14 -26 158 -44 162 -21 610 -24 727 -5 303 49 470
151 531 325 25 69 35 180 24 259 -22 152 -96 245 -253 322 -66 32 -173 66
-379 123 -158 44 -302 88 -320 99 -19 11 -38 33 -46 55 -13 33 -12 41 4 74 22
43 66 70 153 91 77 20 441 28 615 14 77 -6 141 -9 143 -7 5 4 45 347 41 351
-2 2 -50 8 -108 14 -145 16 -454 21 -581 11z"/>
<path d="M30632 6398 c3 -574 6 -649 21 -703 68 -236 214 -359 450 -381 233
-21 419 99 482 311 9 28 18 41 34 43 12 2 21 -2 22 -10 23 -329 22 -323 49
-327 14 -2 148 0 298 4 l272 7 -2 161 -3 161 -110 18 c-60 9 -111 17 -112 17
-2 1 -3 303 -3 671 l0 670 -194 0 -195 0 -4 -507 c-3 -418 -7 -520 -20 -574
-44 -184 -151 -279 -317 -279 -115 0 -199 50 -247 148 l-28 57 -3 578 -3 577
-195 0 -195 0 3 -642z"/>
<path d="M40418 6190 l296 -850 257 0 257 0 51 148 c28 81 161 462 295 847
l243 700 -200 3 c-122 1 -203 -1 -207 -7 -3 -6 -100 -312 -214 -680 -161 -517
-213 -671 -225 -671 -12 0 -65 156 -227 678 l-211 677 -205 3 -205 2 295 -850z"/>
<path d="M45992 6398 c3 -574 6 -649 21 -703 68 -236 214 -359 450 -381 233
-21 419 99 482 311 9 28 18 41 34 43 12 2 21 -2 22 -10 23 -329 22 -323 49
-327 14 -2 148 0 298 4 l272 7 -2 161 -3 161 -110 18 c-60 9 -111 17 -112 17
-2 1 -3 303 -3 671 l0 670 -194 0 -195 0 -4 -507 c-3 -418 -7 -520 -20 -574
-44 -184 -151 -279 -317 -279 -115 0 -199 50 -247 148 l-28 57 -3 578 -3 577
-195 0 -195 0 3 -642z"/>
<path d="M49950 6865 l0 -175 270 0 270 0 0 -500 0 -500 -320 0 -320 0 0 -175
0 -175 770 0 770 0 0 175 0 175 -255 0 -255 0 0 675 0 675 -465 0 -465 0 0
-175z"/>
</g>
</svg>
